<svg xmlns="http://www.w3.org/2000/svg" xmlns:xlink="http://www.w3.org/1999/xlink" contentStyleType="text/css" data-diagram-type="ACTIVITY" height="590px" preserveAspectRatio="none" style="width:280px;height:590px;background:#FFFFFF;" version="1.1" viewBox="0 0 280 590" width="280px" zoomAndPan="magnify"><defs/><g><ellipse cx="126.7441" cy="20" fill="#222222" rx="10" ry="10" style="stroke:#222222;stroke-width:1;"/><rect fill="#F1F1F1" height="35.0938" rx="12.5" ry="12.5" style="stroke:#181818;stroke-width:0.5;" width="165.377" x="44.0557" y="50"/><text fill="#000000" font-family="sans-serif" font-size="12" lengthAdjust="spacing" textLength="145.377" x="54.0557" y="72.457">Provide prompt frame(s) x1</text><rect fill="#F1F1F1" height="35.0938" rx="12.5" ry="12.5" style="stroke:#181818;stroke-width:0.5;" width="139.7188" x="56.8848" y="105.0938"/><text fill="#000000" font-family="sans-serif" font-size="12" lengthAdjust="spacing" textLength="119.7188" x="66.8848" y="127.5508">Tokenize prompt -&gt; z1</text><rect fill="#F1F1F1" height="50.1875" rx="12.5" ry="12.5" style="stroke:#181818;stroke-width:0.5;" width="141.4121" x="56.0381" y="204.1875"/><text fill="#000000" font-family="sans-serif" font-size="12" lengthAdjust="spacing" textLength="121.4121" x="66.0381" y="226.6445">Select latent action a_t</text><text fill="#000000" font-family="sans-serif" font-size="12" lengthAdjust="spacing" textLength="82.0254" x="66.0381" y="241.7383">(User or Agent)</text><rect fill="#F1F1F1" height="35.0938" rx="12.5" ry="12.5" style="stroke:#181818;stroke-width:0.5;" width="231.4883" x="11" y="274.375"/><text fill="#000000" font-family="sans-serif" font-size="12" lengthAdjust="spacing" textLength="211.4883" x="21" y="296.832">Lookup action embedding via codebook</text><rect fill="#F1F1F1" height="50.1875" rx="12.5" ry="12.5" style="stroke:#181818;stroke-width:0.5;" width="197.0996" x="28.1943" y="329.4688"/><text fill="#000000" font-family="sans-serif" font-size="12" lengthAdjust="spacing" textLength="177.0996" x="38.1943" y="351.9258">Predict next frame tokens z_{t+1}</text><text fill="#000000" font-family="sans-serif" font-size="12" lengthAdjust="spacing" textLength="162.041" x="38.1943" y="367.0195">(MaskGIT iterative refinement)</text><rect fill="#F1F1F1" height="35.0938" rx="12.5" ry="12.5" style="stroke:#181818;stroke-width:0.5;" width="189.4355" x="32.0264" y="399.6563"/><text fill="#000000" font-family="sans-serif" font-size="12" lengthAdjust="spacing" textLength="169.4355" x="42.0264" y="422.1133">Decode tokens -&gt; frame x_{t+1}</text><rect fill="#F1F1F1" height="35.0938" rx="12.5" ry="12.5" style="stroke:#181818;stroke-width:0.5;" width="140.7207" x="56.3838" y="454.75"/><text fill="#000000" font-family="sans-serif" font-size="12" lengthAdjust="spacing" textLength="120.7207" x="66.3838" y="477.207">Render / display frame</text><polygon fill="#F1F1F1" points="126.7441,160.1875,138.7441,172.1875,126.7441,184.1875,114.7441,172.1875,126.7441,160.1875" style="stroke:#181818;stroke-width:0.5;"/><polygon fill="#F1F1F1" points="78.1304,509.8438,175.3579,509.8438,187.3579,523.6797,175.3579,537.5156,78.1304,537.5156,66.1304,523.6797,78.1304,509.8438" style="stroke:#181818;stroke-width:0.5;"/><text fill="#000000" font-family="sans-serif" font-size="11" lengthAdjust="spacing" textLength="50.1499" x="78.1304" y="521.2627">Continue?</text><text fill="#000000" font-family="sans-serif" font-size="11" lengthAdjust="spacing" textLength="97.2275" x="78.1304" y="535.0986">Stop condition met?</text><text fill="#000000" font-family="sans-serif" font-size="11" lengthAdjust="spacing" textLength="12.2354" x="187.3579" y="521.2627">no</text><ellipse cx="126.7441" cy="568.5156" fill="none" rx="11" ry="11" style="stroke:#222222;stroke-width:1;"/><ellipse cx="126.7441" cy="568.5156" fill="#222222" rx="6" ry="6" style="stroke:#222222;stroke-width:1;"/><line style="stroke:#181818;stroke-width:1;" x1="126.7441" x2="126.7441" y1="30" y2="50"/><polygon fill="#181818" points="122.7441,40,126.7441,50,130.7441,40,126.7441,44" style="stroke:#181818;stroke-width:1;"/><line style="stroke:#181818;stroke-width:1;" x1="126.7441" x2="126.7441" y1="85.0938" y2="105.0938"/><polygon fill="#181818" points="122.7441,95.0938,126.7441,105.0938,130.7441,95.0938,126.7441,99.0938" style="stroke:#181818;stroke-width:1;"/><line style="stroke:#181818;stroke-width:1;" x1="126.7441" x2="126.7441" y1="254.375" y2="274.375"/><polygon fill="#181818" points="122.7441,264.375,126.7441,274.375,130.7441,264.375,126.7441,268.375" style="stroke:#181818;stroke-width:1;"/><line style="stroke:#181818;stroke-width:1;" x1="126.7441" x2="126.7441" y1="309.4688" y2="329.4688"/><polygon fill="#181818" points="122.7441,319.4688,126.7441,329.4688,130.7441,319.4688,126.7441,323.4688" style="stroke:#181818;stroke-width:1;"/><line style="stroke:#181818;stroke-width:1;" x1="126.7441" x2="126.7441" y1="379.6563" y2="399.6563"/><polygon fill="#181818" points="122.7441,389.6563,126.7441,399.6563,130.7441,389.6563,126.7441,393.6563" style="stroke:#181818;stroke-width:1;"/><line style="stroke:#181818;stroke-width:1;" x1="126.7441" x2="126.7441" y1="434.75" y2="454.75"/><polygon fill="#181818" points="122.7441,444.75,126.7441,454.75,130.7441,444.75,126.7441,448.75" style="stroke:#181818;stroke-width:1;"/><line style="stroke:#181818;stroke-width:1;" x1="126.7441" x2="126.7441" y1="184.1875" y2="204.1875"/><polygon fill="#181818" points="122.7441,194.1875,126.7441,204.1875,130.7441,194.1875,126.7441,198.1875" style="stroke:#181818;stroke-width:1;"/><line style="stroke:#181818;stroke-width:1;" x1="187.3579" x2="254.4883" y1="523.6797" y2="523.6797"/><polygon fill="#181818" points="250.4883,357.9336,254.4883,347.9336,258.4883,357.9336,254.4883,353.9336" style="stroke:#181818;stroke-width:1;"/><line style="stroke:#181818;stroke-width:1;" x1="254.4883" x2="254.4883" y1="172.1875" y2="523.6797"/><line style="stroke:#181818;stroke-width:1;" x1="254.4883" x2="138.7441" y1="172.1875" y2="172.1875"/><polygon fill="#181818" points="148.7441,168.1875,138.7441,172.1875,148.7441,176.1875,144.7441,172.1875" style="stroke:#181818;stroke-width:1;"/><line style="stroke:#181818;stroke-width:1;" x1="126.7441" x2="126.7441" y1="489.8438" y2="509.8438"/><polygon fill="#181818" points="122.7441,499.8438,126.7441,509.8438,130.7441,499.8438,126.7441,503.8438" style="stroke:#181818;stroke-width:1;"/><line style="stroke:#181818;stroke-width:1;" x1="126.7441" x2="126.7441" y1="140.1875" y2="160.1875"/><polygon fill="#181818" points="122.7441,150.1875,126.7441,160.1875,130.7441,150.1875,126.7441,154.1875" style="stroke:#181818;stroke-width:1;"/><line style="stroke:#181818;stroke-width:1;" x1="126.7441" x2="126.7441" y1="537.5156" y2="557.5156"/><polygon fill="#181818" points="122.7441,547.5156,126.7441,557.5156,130.7441,547.5156,126.7441,551.5156" style="stroke:#181818;stroke-width:1;"/><!--SRC=[FOz1IyD048Nl-HLpJ12HN0rOHA482cBhhL2ssTSw99bTTgSnHlplRXhZ-RttpJTHJT2CRb-3wzc2V72TLpe6qo6F1GrbHIdUkWR2utz-VKTZMMK17cQQRz2YLcgDGfHChUo4p5vtahz717A1xayfAgfKVdQkEVkbXUu0QrbErBEXsbaSKbvTd60vKGN3dn7fv15ft7_hLVcJw2ycDkkdBR4Y6EKU571aGRSSUyI4N8R9UmODCs5gl45iKhmXoz6tvcjkBC_HvmUteFp1YRASiTh9HfrFecBvya07NHN4aN9nHHPJ-0i0]--></g></svg>