<svg xmlns="http://www.w3.org/2000/svg" xmlns:xlink="http://www.w3.org/1999/xlink" contentStyleType="text/css" data-diagram-type="DESCRIPTION" height="844px" preserveAspectRatio="none" style="width:1310px;height:844px;background:#FFFFFF;" version="1.1" viewBox="0 0 1310 844" width="1310px" zoomAndPan="magnify"><defs/><g><!--cluster SYS--><g class="cluster" data-entity="SYS" data-source-line="12" data-uid="ent0004" id="cluster_SYS"><rect fill="none" height="437" rx="2.5" ry="2.5" style="stroke:#181818;stroke-width:1;" width="766.5" x="350.5" y="299.32"/><text fill="#000000" font-family="sans-serif" font-size="14" font-weight="bold" lengthAdjust="spacing" textLength="92.5996" x="687.4502" y="315.8532">Genie System</text></g><!--entity Prompt--><g class="entity" data-entity="Prompt" data-source-line="13" data-uid="ent0005" id="entity_Prompt"><ellipse cx="456.3091" cy="704.3818" fill="#F9FBFF" rx="68.3091" ry="16.0618" style="stroke:#4472C4;stroke-width:0.5;"/><text fill="#000000" font-family="sans-serif" font-size="14" lengthAdjust="spacing" textLength="96.4824" x="408.0679" y="709.6865">Provide Prompt</text></g><!--entity SelectAction--><g class="entity" data-entity="SelectAction" data-source-line="14" data-uid="ent0006" id="entity_SelectAction"><ellipse cx="456.2534" cy="634.0707" fill="#F9FBFF" rx="79.2534" ry="18.2507" style="stroke:#4472C4;stroke-width:0.5;"/><text fill="#000000" font-family="sans-serif" font-size="14" lengthAdjust="spacing" textLength="124.5234" x="393.9917" y="639.3754">Select Latent Action</text></g><!--entity Generate--><g class="entity" data-entity="Generate" data-source-line="15" data-uid="ent0007" id="entity_Generate"><ellipse cx="456.7489" cy="544.4698" fill="#F9FBFF" rx="83.7489" ry="19.1498" style="stroke:#4472C4;stroke-width:0.5;"/><text fill="#000000" font-family="sans-serif" font-size="14" lengthAdjust="spacing" textLength="135.3857" x="389.056" y="549.7745">Generate Next Frame</text></g><!--entity Predict--><g class="entity" data-entity="Predict" data-source-line="16" data-uid="ent0008" id="entity_Predict"><ellipse cx="456.7424" cy="361.3816" fill="#F9FBFF" rx="90.2424" ry="25.5616" style="stroke:#4472C4;stroke-width:0.5;"/><text fill="#000000" font-family="sans-serif" font-size="14" font-style="italic" lengthAdjust="spacing" textLength="61.4893" x="425.9978" y="354.3768">&#171;internal&#187;</text><text fill="#000000" font-family="sans-serif" font-size="14" lengthAdjust="spacing" textLength="136.1855" x="388.6496" y="371.9861">Predict Latent Tokens</text></g><!--entity Decode--><g class="entity" data-entity="Decode" data-source-line="17" data-uid="ent0009" id="entity_Decode"><ellipse cx="456.3724" cy="447.4152" fill="#F9FBFF" rx="87.8724" ry="25.5952" style="stroke:#4472C4;stroke-width:0.5;"/><text fill="#000000" font-family="sans-serif" font-size="14" font-style="italic" lengthAdjust="spacing" textLength="61.4893" x="425.6277" y="440.464">&#171;internal&#187;</text><text fill="#000000" font-family="sans-serif" font-size="14" lengthAdjust="spacing" textLength="132.2891" x="390.2278" y="458.0734">Decode Video Frame</text></g><!--entity View--><g class="entity" data-entity="View" data-source-line="18" data-uid="ent0010" id="entity_View"><ellipse cx="1019.1285" cy="354.1457" fill="#F9FBFF" rx="82.1285" ry="18.8257" style="stroke:#4472C4;stroke-width:0.5;"/><text fill="#000000" font-family="sans-serif" font-size="14" lengthAdjust="spacing" textLength="131.5029" x="953.377" y="359.4504">View Updated Frame</text></g><!--entity P--><g class="entity" data-entity="P" data-source-line="9" data-uid="ent0002" id="entity_P"><ellipse cx="25.8413" cy="603.82" fill="#F1F1F1" rx="8" ry="8" style="stroke:#181818;stroke-width:0.5;"/><path d="M25.8413,611.82 L25.8413,638.82 M12.8413,619.82 L38.8413,619.82 M25.8413,638.82 L12.8413,653.82 M25.8413,638.82 L38.8413,653.82" fill="none" style="stroke:#181818;stroke-width:0.5;"/><text fill="#000000" font-family="sans-serif" font-size="14" lengthAdjust="spacing" textLength="39.6826" x="6" y="669.8532">Player</text></g><!--entity A--><g class="entity" data-entity="A" data-source-line="10" data-uid="ent0003" id="entity_A"><ellipse cx="25.793" cy="95.82" fill="#F1F1F1" rx="8" ry="8" style="stroke:#181818;stroke-width:0.5;"/><path d="M25.793,103.82 L25.793,130.82 M12.793,111.82 L38.793,111.82 M25.793,130.82 L12.793,145.82 M25.793,130.82 L38.793,145.82" fill="none" style="stroke:#181818;stroke-width:0.5;"/><text fill="#000000" font-family="sans-serif" font-size="14" lengthAdjust="spacing" textLength="36.5859" x="7.5" y="161.8532">Agent</text></g><g class="entity" data-entity="GMN20" data-source-line="34" data-uid="ent0021" id="entity_GMN20"><path d="M829,752.32 L829,778.6716 L1209.3027,778.6716 L1209.3027,762.32 L1199.3027,752.32 L829,752.32" fill="#FEFFDD" style="stroke:#181818;stroke-width:0.5;"/><path d="M1199.3027,752.32 L1199.3027,762.32 L1209.3027,762.32 L1199.3027,752.32" fill="#FEFFDD" style="stroke:#181818;stroke-width:1;"/><text fill="#000000" font-family="sans-serif" font-size="13" lengthAdjust="spacing" textLength="359.3027" x="835" y="770.8151">Discrete a_t &#8712; {0..|A|-1}\n(codebook index; learned semantics)</text></g><g class="entity" data-entity="GMN23" data-source-line="38" data-uid="ent0024" id="entity_GMN23"><path d="M239,257.32 L239,283.6716 A0,0 0 0 0 239,283.6716 L452.5,283.6716 L456.5,335.73 L460.5,283.6716 L674.4194,283.6716 A0,0 0 0 0 674.4194,283.6716 L674.4194,267.32 L664.4194,257.32 L239,257.32 A0,0 0 0 0 239,257.32" fill="#FEFFDD" style="stroke:#181818;stroke-width:0.5;"/><path d="M664.4194,257.32 L664.4194,267.32 L674.4194,267.32 L664.4194,257.32" fill="#FEFFDD" style="stroke:#181818;stroke-width:0.5;"/><text fill="#000000" font-family="sans-serif" font-size="13" lengthAdjust="spacing" textLength="414.4194" x="245" y="275.8151">ST MaskGIT dynamics\nconditioned on past tokens + action embedding</text></g><g class="entity" data-entity="GMN26" data-source-line="42" data-uid="ent0027" id="entity_GMN26"><path d="M735,257.32 L735,283.6716 A0,0 0 0 0 735,283.6716 L1015,283.6716 L1019,335.29 L1023,283.6716 L1303.0347,283.6716 A0,0 0 0 0 1303.0347,283.6716 L1303.0347,267.32 L1293.0347,257.32 L735,257.32 A0,0 0 0 0 735,257.32" fill="#FEFFDD" style="stroke:#181818;stroke-width:0.5;"/><path d="M1293.0347,257.32 L1293.0347,267.32 L1303.0347,267.32 L1293.0347,257.32" fill="#FEFFDD" style="stroke:#181818;stroke-width:0.5;"/><text fill="#000000" font-family="sans-serif" font-size="13" lengthAdjust="spacing" textLength="547.0347" x="741" y="275.8151">Loop over (SelectAction &#8594; Generate &#8594; View) until termination\n(episode horizon or user stops)</text></g><!--link P to Prompt--><g class="link" data-entity-1="P" data-entity-2="Prompt" data-source-line="21" data-uid="lnk11" id="link_P_Prompt"><path d="M46.28,637.68 C83.51,644.14 167.89,658.7 239,670.32 C293.26,679.19 349.3105,687.9628 393.0105,694.7228" fill="none" id="P-to-Prompt" style="stroke:#555555;stroke-width:1;"/><polygon fill="#555555" points="398.94,695.64,390.6573,690.3112,393.9988,694.8756,389.4343,698.2171,398.94,695.64" style="stroke:#555555;stroke-width:1;"/></g><!--link P to SelectAction--><g class="link" data-entity-1="P" data-entity-2="SelectAction" data-source-line="22" data-uid="lnk12" id="link_P_SelectAction"><path d="M46.24,634.32 C103.49,634.32 269.02,634.32 370.94,634.32" fill="none" id="P-to-SelectAction" style="stroke:#555555;stroke-width:1;"/><polygon fill="#555555" points="376.94,634.32,367.94,630.32,371.94,634.32,367.94,638.32,376.94,634.32" style="stroke:#555555;stroke-width:1;"/></g><!--link A to SelectAction--><g class="link" data-entity-1="A" data-entity-2="SelectAction" data-source-line="23" data-uid="lnk13" id="link_A_SelectAction"><path d="M44.72,150.51 C81.11,201.34 164.55,324.08 209,439.32 C232.06,499.1 194.49,534.23 239,580.32 C274.39,616.96 324.5748,629.6648 370.8248,633.8848" fill="none" id="A-to-SelectAction" style="stroke:#555555;stroke-width:1;"/><polygon fill="#555555" points="376.8,634.43,368.2007,629.6288,371.8207,633.9757,367.4738,637.5957,376.8,634.43" style="stroke:#555555;stroke-width:1;"/><text fill="#000000" font-family="sans-serif" font-size="13" lengthAdjust="spacing" textLength="131.5171" x="77" y="196.8151">&#171;alternative controller&#187;</text></g><!--link SelectAction to Generate--><g class="link" data-entity-1="SelectAction" data-entity-2="Generate" data-source-line="26" data-uid="lnk14" id="link_SelectAction_Generate"><path d="M456.5,615.67 C456.5,600.43 456.5,584.97 456.5,569.57" fill="none" id="SelectAction-to-Generate" style="stroke:#555555;stroke-width:1;stroke-dasharray:7,7;"/><polygon fill="#555555" points="456.5,563.57,452.5,572.57,456.5,568.57,460.5,572.57,456.5,563.57" style="stroke:#555555;stroke-width:1;"/><text fill="#000000" font-family="sans-serif" font-size="13" lengthAdjust="spacing" textLength="55.6563" x="417" y="595.0651">&#171;include&#187;</text></g><!--link Generate to Predict--><g class="link" data-entity-1="Generate" data-entity-2="Predict" data-source-line="27" data-uid="lnk15" id="link_Generate_Predict"><path d="M374.15,547.79 C305.63,545.64 212.11,529.85 166,465.32 C112.35,390.24 256.4293,369.4437 360.3593,363.6537" fill="none" id="Generate-to-Predict" style="stroke:#555555;stroke-width:1;stroke-dasharray:7,7;"/><polygon fill="#555555" points="366.35,363.32,357.1414,359.8268,361.3577,363.5981,357.5864,367.8144,366.35,363.32" style="stroke:#555555;stroke-width:1;"/><text fill="#000000" font-family="sans-serif" font-size="13" lengthAdjust="spacing" textLength="55.6563" x="115" y="461.8151">&#171;include&#187;</text></g><!--link Generate to Decode--><g class="link" data-entity-1="Generate" data-entity-2="Decode" data-source-line="28" data-uid="lnk16" id="link_Generate_Decode"><path d="M456.5,525.16 C456.5,510.25 456.5,495.42 456.5,479.06" fill="none" id="Generate-to-Decode" style="stroke:#555555;stroke-width:1;stroke-dasharray:7,7;"/><polygon fill="#555555" points="456.5,473.06,452.5,482.06,456.5,478.06,460.5,482.06,456.5,473.06" style="stroke:#555555;stroke-width:1;"/><text fill="#000000" font-family="sans-serif" font-size="13" lengthAdjust="spacing" textLength="55.6563" x="417" y="504.5651">&#171;include&#187;</text></g><!--link Generate to View--><g class="link" data-entity-1="Generate" data-entity-2="View" data-source-line="29" data-uid="lnk17" id="link_Generate_View"><path d="M518.3,531.42 C562.02,521.59 622.17,506.95 674,490.32 C787.59,453.88 911.9561,401.1319 974.6661,373.6019" fill="none" id="Generate-to-View" style="stroke:#555555;stroke-width:1;"/><polygon fill="#555555" points="980.16,371.19,970.3112,371.1452,975.5817,373.1999,973.527,378.4704,980.16,371.19" style="stroke:#555555;stroke-width:1;"/></g><!--link P to View--><g class="link" data-entity-1="P" data-entity-2="View" data-source-line="30" data-uid="lnk18" id="link_P_View"><path d="M31.71,595.2 C37.76,554.53 50.64,489.86 76,439.32 C127.42,336.82 135.42,288.52 239,239.32 C413.63,156.36 495.38,165.33 674,239.32 C709.42,253.99 701.12,282.38 735,300.32 C797.99,333.67 872.5608,346.1308 931.6108,351.0608" fill="none" id="P-to-View" style="stroke:#555555;stroke-width:1;"/><polygon fill="#555555" points="937.59,351.56,928.954,346.8251,932.6073,351.144,928.2884,354.7973,937.59,351.56" style="stroke:#555555;stroke-width:1;"/></g><!--link A to View--><g class="link" data-entity-1="A" data-entity-2="View" data-source-line="31" data-uid="lnk19" id="link_A_View"><path d="M44.65,121.11 C129.72,97.16 501.7,6 705,178.32 C747.59,214.42 694.49,261.89 735,300.32 C789.7,352.22 872.1107,361.8108 935.5707,360.8508" fill="none" id="A-to-View" style="stroke:#555555;stroke-width:1;"/><polygon fill="#555555" points="941.57,360.76,932.5105,356.8966,936.5706,360.8356,932.6315,364.8957,941.57,360.76" style="stroke:#555555;stroke-width:1;"/><text fill="#000000" font-family="sans-serif" font-size="13" lengthAdjust="spacing" textLength="45.5381" x="434" y="72.8151">optional</text></g><!--link SelectAction to GMN20--><g class="link" data-entity-1="SelectAction" data-entity-2="GMN20" data-source-line="34" data-uid="lnk22" id="link_SelectAction_GMN20"><path d="M536.11,635.15 C579.06,638.52 631.92,647.61 674,670.32 C709.15,689.29 699.27,718.46 735,736.32 C763.83,750.73 796.34,759.67 828.8,765.01" fill="none" id="SelectAction-GMN20" style="stroke:#555555;stroke-width:1;stroke-dasharray:7,7;"/></g><g class="legend" data-source-line="45"><rect fill="#DDDDDD" height="27.6094" rx="7.5" ry="7.5" style="stroke:#000000;stroke-width:1;" width="401.4189" x="882.6157" y="796.6716"/><text fill="#000000" font-family="sans-serif" font-size="14" lengthAdjust="spacing" textLength="391.4189" x="887.6157" y="816.2048">&#171;internal&#187; implementation detail (not directly invoked by actors)</text></g><!--SRC=[TLJRQXin47tNLmpkGnoAJLjSIjjWsDWu1D9YQYTG21HvDTu8QwL5afsuILvBdlk9-PBEQDStYlsmrixjd3cZsHFuWNDjKS5rG1X8UWorBBmiOUuyNA3L29TsZXvjZd3bN2KCpYD41ruNTn6KzfX7xQm82sqhoQdBW3cNUXG0vp9V5DujhHeuGoNVZ3wFpaSZzZYlq3VMNk_JXq6Fh9dtxhunVam_yIo4p2CPnaQkqOCCC6uiMO4siY4JWdb8MnY4LirxiWuHonQx9pydYSs6MMlitKeh1FelgvXYwkD-q0GDrOGh6HabIstMvPAZDkmd42vwYeRl-11XH5fWYj_O3ncWqhlgKxT06neYjUViJDk8tahJx-zd3Z5tHFs6-BizaCPyBEj6uprSLuhWr5uMcrdXCNGw_Oq6zSj1bzb_9lX2MD8ahAXN2BcpqJjZq1EoE6a4Wv1o-1JfoXJe0ymP7efQ5VQqjStDKc603NcWsLNXL1mWTljRAHDwaqLmMtEtlzNlU4GZrP40RZJ9CjuTi-sHibp5RAGHmZgAhnV1pGy56-gGUoIt_1NXzUK57jzrkq_PK-VzywrjC_xCkGNrg_3XAnYKdjSmO2bjr3brZbO1rszGPYv6Lp9Cqv-OJE6R38kBoocejPKbPTrQ6eBIJ82AaMAL3BoiVBVWBSXQHYndg9IsnN6Cr3IlExWLhLpxO0olV_xkvi0l77qAIo9kWCPNQfl6IdrYfGDBVUUy_asfjBDq8prDrrK7FHei-2LfAVRlCEYoCbZIZjHNHM6K1DEcjERZOzQauefwL31RG_emDANhely0]--></g></svg>